0
SECTION
2
HEADER
9
$INSUNITS
70
4
9
$ACADVER
1
AC1014
9
$HANDSEED
5
FFFF
0
ENDSEC
0
SECTION
2
TABLES
0
TABLE
2
VPORT
5
8
100
AcDbSymbolTable
0
ENDTAB
0
TABLE
2
LTYPE
5
5
100
AcDbSymbolTable
0
LTYPE
5
14
100
AcDbSymbolTableRecord
100
AcDbLinetypeTableRecord
2
BYBLOCK
70
0
0
LTYPE
5
15
100
AcDbSymbolTableRecord
100
AcDbLinetypeTableRecord
2
BYLAYER
70
0
0
ENDTAB
0
TABLE
2
LAYER
5
2
100
AcDbSymbolTable
70
2
0
LAYER
5
50
100
AcDbSymbolTableRecord
100
AcDbLayerTableRecord
2
0
70
0
6
CONTINUOUS
0
ENDTAB
0
TABLE
2
STYLE
5
3
100
AcDbSymbolTable
70
1
0
STYLE
5
11
100
AcDbSymbolTableRecord
100
AcDbTextStyleTableRecord
2
STANDARD
70
0
0
ENDTAB
0
TABLE
2
VIEW
5
6
100
AcDbSymbolTable
70
0
0
ENDTAB
0
TABLE
2
UCS
5
7
100
AcDbSymbolTable
70
0
0
ENDTAB
0
TABLE
2
APPID
5
9
100
AcDbSymbolTable
70
2
0
APPID
5
12
100
AcDbSymbolTableRecord
100
AcDbRegAppTableRecord
2
ACAD
70
0
0
ENDTAB
0
TABLE
2
DIMSTYLE
5
A
100
AcDbSymbolTable
70
1
0
ENDTAB
0
TABLE
2
BLOCK_RECORD
5
1
100
AcDbSymbolTable
70
1
0
BLOCK_RECORD
5
1F
100
AcDbSymbolTableRecord
100
AcDbBlockTableRecord
2
*MODEL_SPACE
0
BLOCK_RECORD
5
1B
100
AcDbSymbolTableRecord
100
AcDbBlockTableRecord
2
*PAPER_SPACE
0
ENDTAB
0
ENDSEC
0
SECTION
2
BLOCKS
0
BLOCK
5
20
100
AcDbEntity
100
AcDbBlockBegin
2
*MODEL_SPACE
0
ENDBLK
5
21
100
AcDbEntity
100
AcDbBlockEnd
0
BLOCK
5
1C
100
AcDbEntity
100
AcDbBlockBegin
2
*PAPER_SPACE
0
ENDBLK
5
1D
100
AcDbEntity
100
AcDbBlockEnd
0
ENDSEC
0
SECTION
2
ENTITIES
0
LINE
5
100
100
AcDbEntity
8
0
100
AcDbLine
10
-122.00000000002845
20
160.99999999996038
30
512.5
11
-132.00000000004269
21
171
31
512.5
0
CIRCLE
5
101
100
AcDbEntity
8
0
100
AcDbCircle
10
-56.999999999999886
20
42.999999999999986
30
512.5
40
1.6000000000000012
210
0
220
0
230
1
0
CIRCLE
5
102
100
AcDbEntity
8
0
100
AcDbCircle
10
92.999999999999972
20
178.5
30
512.5
40
1.599999999999997
210
0
220
0
230
1
0
CIRCLE
5
103
100
AcDbEntity
8
0
100
AcDbCircle
10
17.999999999999972
20
42.999999999999986
30
512.5
40
1.6000000000000012
210
0
220
0
230
1
0
LINE
5
104
100
AcDbEntity
8
0
100
AcDbLine
10
137.99999999999528
20
-1.7763568394002505e-14
30
512.5
11
-102.00000000000458
21
-1.7763568394002505e-14
31
512.5
0
LINE
5
105
100
AcDbEntity
8
0
100
AcDbLine
10
-92.000000000000028
20
25.000000000004317
30
512.5
11
-92.000000000000028
21
41.500000000004306
31
512.5
0
CIRCLE
5
106
100
AcDbEntity
8
0
100
AcDbCircle
10
-120.4999999999572
20
174
30
512.5
40
1.6000000000000003
210
0
220
0
230
1
0
CIRCLE
5
107
100
AcDbEntity
8
0
100
AcDbCircle
10
-115.49999999997155
20
92.999999999999957
30
512.5
40
1.6000000000000003
210
0
220
0
230
1
0
LINE
5
108
100
AcDbEntity
8
0
100
AcDbLine
10
85.499999999999972
20
50.499999999999986
30
512.5
11
-49.499999999999957
21
50.499999999999986
31
512.5
0
LINE
5
109
100
AcDbEntity
8
0
100
AcDbLine
10
-132.00000000004269
20
171
30
512.5
11
-132
21
186
31
512.5
0
LINE
5
110
100
AcDbEntity
8
0
100
AcDbLine
10
-122.00000000002845
20
71.499999999960281
30
512.5
11
-122.00000000002845
21
160.99999999996038
31
512.5
0
CIRCLE
5
111
100
AcDbEntity
8
0
100
AcDbCircle
10
126.49999999999537
20
11.999999999999975
30
512.5
40
1.6000000000000003
210
0
220
0
230
1
0
LINE
5
112
100
AcDbEntity
8
0
100
AcDbLine
10
-132
20
186
30
512.5
11
-49.499999999999957
21
186
31
512.5
0
CIRCLE
5
113
100
AcDbEntity
8
0
100
AcDbCircle
10
92.999999999999972
20
117.99999999999999
30
512.5
40
1.5999999999999992
210
0
220
0
230
1
0
LINE
5
114
100
AcDbEntity
8
0
100
AcDbLine
10
-92.000000000000028
20
41.500000000004306
30
512.5
11
-122.00000000002845
21
71.499999999960281
31
512.5
0
LINE
5
115
100
AcDbEntity
8
0
100
AcDbLine
10
137.99999999999528
20
14.999999999999982
30
512.5
11
137.99999999999528
21
-1.7763568394002505e-14
31
512.5
0
CIRCLE
5
116
100
AcDbEntity
8
0
100
AcDbCircle
10
-90.499999999995282
20
11.999999999999975
30
512.5
40
1.6000000000000003
210
0
220
0
230
1
0
LINE
5
117
100
AcDbEntity
8
0
100
AcDbLine
10
167.99999999995734
20
171
30
512.5
11
157.99999999997155
21
161.0000000000266
31
512.5
0
LINE
5
118
100
AcDbEntity
8
0
100
AcDbLine
10
157.99999999997155
20
161.0000000000266
30
512.5
11
157.99999999997155
21
71.500000000026574
31
512.5
0
LINE
5
119
100
AcDbEntity
8
0
100
AcDbLine
10
85.499999999999972
20
186
30
512.5
11
85.499999999999972
21
50.499999999999986
31
512.5
0
LINE
5
120
100
AcDbEntity
8
0
100
AcDbLine
10
128.00000000000006
20
25.000000000013589
30
512.5
11
137.99999999999528
21
14.999999999999982
31
512.5
0
CIRCLE
5
121
100
AcDbEntity
8
0
100
AcDbCircle
10
-56.999999999999886
20
178.5
30
512.5
40
1.6000000000000003
210
0
220
0
230
1
0
LINE
5
122
100
AcDbEntity
8
0
100
AcDbLine
10
85.499999999999972
20
186
30
512.5
11
167.99999999995734
21
186
31
512.5
0
LINE
5
123
100
AcDbEntity
8
0
100
AcDbLine
10
-102.00000000000458
20
-1.7763568394002505e-14
30
512.5
11
-102.00000000000458
21
14.999999999999982
31
512.5
0
CIRCLE
5
124
100
AcDbEntity
8
0
100
AcDbCircle
10
92.999999999999972
20
42.999999999999986
30
512.5
40
1.6000000000000003
210
0
220
0
230
1
0
LINE
5
125
100
AcDbEntity
8
0
100
AcDbLine
10
-102.00000000000458
20
14.999999999999982
30
512.5
11
-92.000000000000028
21
25.000000000004317
31
512.5
0
CIRCLE
5
126
100
AcDbEntity
8
0
100
AcDbCircle
10
151.49999999997149
20
93.000000000000043
30
512.5
40
1.6000000000000003
210
0
220
0
230
1
0
LINE
5
127
100
AcDbEntity
8
0
100
AcDbLine
10
-49.499999999999957
20
50.499999999999986
30
512.5
11
-49.499999999999957
21
186
31
512.5
0
CIRCLE
5
128
100
AcDbEntity
8
0
100
AcDbCircle
10
156.49999999995731
20
174
30
512.5
40
1.6000000000000003
210
0
220
0
230
1
0
CIRCLE
5
129
100
AcDbEntity
8
0
100
AcDbCircle
10
-56.999999999999886
20
117.99999999999999
30
512.5
40
1.6000000000000003
210
0
220
0
230
1
0
LINE
5
130
100
AcDbEntity
8
0
100
AcDbLine
10
128.00000000000006
20
41.500000000013571
30
512.5
11
128.00000000000006
21
25.000000000013589
31
512.5
0
LINE
5
131
100
AcDbEntity
8
0
100
AcDbLine
10
157.99999999997155
20
71.500000000026574
30
512.5
11
128.00000000000006
21
41.500000000013571
31
512.5
0
LINE
5
132
100
AcDbEntity
8
0
100
AcDbLine
10
167.99999999995734
20
186
30
512.5
11
167.99999999995734
21
171
31
512.5
0
ENDSEC
0
SECTION
2
OBJECTS
0
DICTIONARY
5
C
100
AcDbDictionary
3
ACAD_GROUP
350
D
3
ACAD_MLINESTYLE
350
17
0
DICTIONARY
5
D
100
AcDbDictionary
0
DICTIONARY
5
1A
330
C
100
AcDbDictionary
0
DICTIONARY
5
17
100
AcDbDictionary
0
ENDSEC
0
EOF
