0
SECTION
2
HEADER
9
$INSUNITS
70
4
9
$ACADVER
1
AC1014
9
$HANDSEED
5
FFFF
0
ENDSEC
0
SECTION
2
TABLES
0
TABLE
2
VPORT
5
8
100
AcDbSymbolTable
0
ENDTAB
0
TABLE
2
LTYPE
5
5
100
AcDbSymbolTable
0
LTYPE
5
14
100
AcDbSymbolTableRecord
100
AcDbLinetypeTableRecord
2
BYBLOCK
70
0
0
LTYPE
5
15
100
AcDbSymbolTableRecord
100
AcDbLinetypeTableRecord
2
BYLAYER
70
0
0
ENDTAB
0
TABLE
2
LAYER
5
2
100
AcDbSymbolTable
70
2
0
LAYER
5
50
100
AcDbSymbolTableRecord
100
AcDbLayerTableRecord
2
0
70
0
6
CONTINUOUS
0
ENDTAB
0
TABLE
2
STYLE
5
3
100
AcDbSymbolTable
70
1
0
STYLE
5
11
100
AcDbSymbolTableRecord
100
AcDbTextStyleTableRecord
2
STANDARD
70
0
0
ENDTAB
0
TABLE
2
VIEW
5
6
100
AcDbSymbolTable
70
0
0
ENDTAB
0
TABLE
2
UCS
5
7
100
AcDbSymbolTable
70
0
0
ENDTAB
0
TABLE
2
APPID
5
9
100
AcDbSymbolTable
70
2
0
APPID
5
12
100
AcDbSymbolTableRecord
100
AcDbRegAppTableRecord
2
ACAD
70
0
0
ENDTAB
0
TABLE
2
DIMSTYLE
5
A
100
AcDbSymbolTable
70
1
0
ENDTAB
0
TABLE
2
BLOCK_RECORD
5
1
100
AcDbSymbolTable
70
1
0
BLOCK_RECORD
5
1F
100
AcDbSymbolTableRecord
100
AcDbBlockTableRecord
2
*MODEL_SPACE
0
BLOCK_RECORD
5
1B
100
AcDbSymbolTableRecord
100
AcDbBlockTableRecord
2
*PAPER_SPACE
0
ENDTAB
0
ENDSEC
0
SECTION
2
BLOCKS
0
BLOCK
5
20
100
AcDbEntity
100
AcDbBlockBegin
2
*MODEL_SPACE
0
ENDBLK
5
21
100
AcDbEntity
100
AcDbBlockEnd
0
BLOCK
5
1C
100
AcDbEntity
100
AcDbBlockBegin
2
*PAPER_SPACE
0
ENDBLK
5
1D
100
AcDbEntity
100
AcDbBlockEnd
0
ENDSEC
0
SECTION
2
ENTITIES
0
LWPOLYLINE
5
100
100
AcDbEntity
8
0
100
AcDbPolyline
90
20
70
1
43
0.0
10
-151.29339828220171
20
-181.57867965644041
42
0.19891236737966017
10
-150.41471862576134
20
-179.45735931288078
10
-150.41471862576134
20
-71.500000000000057
10
-179.56471862576132
20
-71.500000000000057
10
-179.56471862576132
20
36.499999999999993
10
-150.41471862576134
20
36.499999999999957
10
-150.41471862576128
20
144.45735931288056
42
0.19891236737965801
10
-151.29339828220157
20
146.57867965644022
10
-168.33603896932092
20
163.6213203435596
42
0.19891236737965801
10
-170.45735931288061
20
164.49999999999991
10
-494.37207793864189
20
164.50000000000011
42
0.19891236737967105
10
-496.49339828220161
20
163.62132034355966
10
-513.53603896932088
20
146.57867965644039
42
0.19891236737965362
10
-514.41471862576122
20
144.45735931288084
10
-514.41471862576134
20
-179.45735931288067
42
0.19891236737965151
10
-513.53603896932111
20
-181.5786796564403
10
-496.49339828220161
20
-198.62132034355963
42
0.19891236737965579
10
-494.37207793864206
20
-199.49999999999994
10
-170.45735931288075
20
-199.50000000000006
42
0.19891236737965584
10
-168.33603896932115
20
-198.62132034355969
0
CIRCLE
5
101
100
AcDbEntity
8
0
100
AcDbCircle
10
-507.41471862576145
20
-87.499999999999929
30
0
40
1.6000000000000003
210
-9.8607613152626476e-32
220
1.2075949781892461e-47
230
1
0
CIRCLE
5
102
100
AcDbEntity
8
0
100
AcDbCircle
10
-507.41471862576145
20
52.500000000000071
30
3.5527136788005009e-14
40
1.6000000000000003
210
-9.8607613152626476e-32
220
1.2075949781892461e-47
230
1
0
CIRCLE
5
103
100
AcDbEntity
8
0
100
AcDbCircle
10
-187.03471862576129
20
30.000000000000039
30
0
40
1.6000000000000003
210
-9.8607613152626476e-32
220
1.2075949781892461e-47
230
1
0
CIRCLE
5
104
100
AcDbEntity
8
0
100
AcDbCircle
10
-173.72471862576134
20
-79.000000000000085
30
3.5527136788005009e-14
40
1.6000000000000003
210
-9.8607613152626476e-32
220
1.2075949781892461e-47
230
1
0
CIRCLE
5
105
100
AcDbEntity
8
0
100
AcDbCircle
10
-495.06471862576149
20
-180.14999999999998
30
0
40
1.6000000000000003
210
-9.8607613152626476e-32
220
1.2075949781892461e-47
230
1
0
CIRCLE
5
106
100
AcDbEntity
8
0
100
AcDbCircle
10
-378.31471862576154
20
-188.49999999999997
30
0
40
1.6000000000000012
210
-9.8607613152626476e-32
220
1.2075949781892461e-47
230
1
0
CIRCLE
5
107
100
AcDbEntity
8
0
100
AcDbCircle
10
-169.76471862576119
20
145.14999999999989
30
3.5527136788005009e-14
40
1.6000000000000003
210
-9.8607613152626476e-32
220
1.2075949781892461e-47
230
1
0
CIRCLE
5
108
100
AcDbEntity
8
0
100
AcDbCircle
10
-495.06471862576132
20
145.15000000000003
30
3.5527136788005009e-14
40
1.6000000000000003
210
-9.8607613152626476e-32
220
1.2075949781892461e-47
230
1
0
CIRCLE
5
109
100
AcDbEntity
8
0
100
AcDbCircle
10
-507.41471862576145
20
-17.499999999999915
30
3.5527136788005009e-14
40
1.6000000000000003
210
-9.8607613152626476e-32
220
1.2075949781892461e-47
230
1
0
CIRCLE
5
110
100
AcDbEntity
8
0
100
AcDbCircle
10
-187.03471862576129
20
-65
30
0
40
1.6000000000000003
210
-9.8607613152626476e-32
220
1.2075949781892461e-47
230
1
0
CIRCLE
5
111
100
AcDbEntity
8
0
100
AcDbCircle
10
-378.31471862576137
20
153.49999999999878
30
0
40
1.599999999999997
210
-9.8607613152626476e-32
220
1.2075949781892461e-47
230
1
0
CIRCLE
5
112
100
AcDbEntity
8
0
100
AcDbCircle
10
-286.51471862576125
20
153.49999999999883
30
3.5527136788005009e-14
40
1.6000000000000003
210
-9.8607613152626476e-32
220
1.2075949781892461e-47
230
1
0
CIRCLE
5
113
100
AcDbEntity
8
0
100
AcDbCircle
10
-169.76471862576133
20
-180.15000000000012
30
3.5527136788005009e-14
40
1.6000000000000003
210
-9.8607613152626476e-32
220
1.2075949781892461e-47
230
1
0
CIRCLE
5
114
100
AcDbEntity
8
0
100
AcDbCircle
10
-173.72471862576134
20
43.999999999999844
30
3.5527136788005009e-14
40
1.6000000000000003
210
-9.8607613152626476e-32
220
1.2075949781892461e-47
230
1
0
CIRCLE
5
115
100
AcDbEntity
8
0
100
AcDbCircle
10
-286.51471862576136
20
-188.49999999999997
30
0
40
1.6000000000000023
210
-9.8607613152626476e-32
220
1.2075949781892461e-47
230
1
0
ENDSEC
0
SECTION
2
OBJECTS
0
DICTIONARY
5
C
100
AcDbDictionary
3
ACAD_GROUP
350
D
3
ACAD_MLINESTYLE
350
17
0
DICTIONARY
5
D
100
AcDbDictionary
0
DICTIONARY
5
1A
330
C
100
AcDbDictionary
0
DICTIONARY
5
17
100
AcDbDictionary
0
ENDSEC
0
EOF
